<svg xmlns="http://www.w3.org/2000/svg" viewBox="0 0 800 600">
  <rect width="800" height="600" fill="#0e8a60"/>
  <rect x="40" y="40" width="720" height="52" fill="#211a12"/>
  <text x="56" y="77" font-family="monospace" font-size="30" fill="#fbf8f0">AUDIT ORGA — REPORT PDF</text>
  <g stroke="#211a12" stroke-width="4" fill="none">
    <path d="M120 420 a160 160 0 0 1 240 0" opacity="0.35"/>
    <path d="M210 360 a70 70 0 0 1 0 140 q0 -70 0 -140Z"/>
    <path d="M300 420 h120"/>
    <path d="M420 420 a150 150 0 0 0 10 -150 q60 40 60 120 q0 40 -10 30Z"/>
  </g>
  <rect x="560" y="180" width="120" height="200" fill="#211a12"/>
  <g stroke="#fbf8f0" stroke-width="4">
    <path d="M576 210 h88 M576 232 h88 M576 254 h60 M576 276 h88 M576 298 h70"/>
  </g>
  <path d="M120 180 h300 v26 h-300Z M120 206 h240 v8 h-240Z" fill="#211a12"/>
  <circle cx="680" cy="470" r="26" fill="#fbf8f0"/>
  <path d="M670 470 h20 M680 460 v20" stroke="#211a12" stroke-width="3"/>
</svg>